# xmcd CD database file
#
# Track frame offsets:
#	150
#	10542
#	19772
#	37010
#	51977
#	63825
#	76722
#	82407
#	95575
#	111630
#	124812
#	145807
#	155240
#	168285
#	182542
#	194227
#	207295
#	220525
#	233630
#	244812
#
# Disc length: 3459 seconds
#
# Revision: 2
# Processed by: cddbd v1.5.2PL0 Copyright (c) Steve Scherf et al.
# Submitted via: CDex 1.51
#
DISCID=1a0d8114
DTITLE=Volani taboroveho ohne - CD_4 V pasu koleji
DYEAR=2001
DGENRE=Country
TTITLE0=Zimni
TTITLE1=Madera
TTITLE2=Poraneny koleno
TTITLE3=Demanty
TTITLE4=Taborak vola
TTITLE5=Velikej kamarad
TTITLE6=Pisen posledniho vagonu
TTITLE7=Oslavske boudy
TTITLE8=Letokruhy
TTITLE9=Nadrazi
TTITLE10=Vsech vandraku muza
TTITLE11=Ruty-suty Arizona, Texas
TTITLE12=Tak ahoj
TTITLE13=Hvezdopad
TTITLE14=Mexicka svatba
TTITLE15=Quantanamo
TTITLE16=Chadny klic
TTITLE17=Tak uz mi ma holka mava
TTITLE18=Amazonka
TTITLE19=Osadou zni stara pisen
EXTD=YEAR: 2001
EXTT0=
EXTT1=
EXTT2=
EXTT3=
EXTT4=
EXTT5=
EXTT6=
EXTT7=
EXTT8=
EXTT9=
EXTT10=
EXTT11=
EXTT12=
EXTT13=
EXTT14=
EXTT15=
EXTT16=
EXTT17=
EXTT18=
EXTT19=
PLAYORDER=
